<?xml version="1.0" encoding="utf-8"?>
<!-- Generator: Adobe Illustrator 18.1.0, SVG Export Plug-In . SVG Version: 6.00 Build 0)  -->
<!DOCTYPE svg PUBLIC "-//W3C//DTD SVG 1.1//EN" "http://www.w3.org/Graphics/SVG/1.1/DTD/svg11.dtd">
<svg version="1.1" id="Layer_1" xmlns="http://www.w3.org/2000/svg" xmlns:xlink="http://www.w3.org/1999/xlink" x="0px" y="0px"
	 viewBox="0 0 122.7 87.7" enable-background="new 0 0 122.7 87.7" xml:space="preserve">
<g>
	<path fill="#FFFFFF" d="M5.8,75.1c0.4-0.4,0.8-0.8,1.1-1.2c0.3-0.3,0.7-0.6,1-0.9c0.3-0.3,0.6-0.5,0.9-0.8c0.3-0.3,0.6-0.5,0.9-0.8
		c0.3-0.3,0.6-0.6,0.9-0.9c0.3-0.3,0.7-0.7,1.1-1.2c0.6-0.7,1.2-1.4,1.8-2.2c0.6-0.8,1-1.6,1.5-2.4c0.2-0.4,0.3-0.8,0.3-1.3
		c0-0.4,0.1-0.9,0.1-1.3c0-0.4,0.1-0.9,0.1-1.3c0.1-0.4,0.2-0.8,0.5-1.2c0,0,0.1,0,0.1,0c0.2,0,0.4,0.1,0.8,0.3
		c0.3,0.2,0.7,0.4,1,0.7c0.4,0.3,0.8,0.6,1.1,1c0.4,0.4,0.7,0.7,1.1,1.1c0.3,0.3,0.6,0.7,0.8,1c0.2,0.3,0.3,0.5,0.4,0.7
		c0,0.1,0,0.1,0,0.2c0,0.1,0,0.1,0,0.2c0,0.3,0,0.6-0.1,1c-0.1,0.3-0.1,0.7-0.1,1c0,0.1,0.1,0.5,0.3,0.9c0.2,0.5,0.3,1.1,0.5,1.8
		s0.4,1.4,0.5,2.2c0.1,0.8,0.2,1.6,0.1,2.4l-0.2,0.6l0.8-1c0.2-0.2,0.4-0.4,0.6-0.5c0.2-0.2,0.4-0.3,0.6-0.5
		c0.2-0.2,0.4-0.4,0.7-0.6c0.2-0.2,0.5-0.5,0.9-0.8c0,0,0.1,0.1,0.2,0.3c0.2,0.2,0.3,0.4,0.5,0.6c0.2,0.2,0.4,0.4,0.5,0.6
		c0.2,0.2,0.2,0.3,0.2,0.3c-0.3,0.5-0.7,1.1-1.2,1.7c-0.5,0.6-1,1.2-1.6,1.9c-0.6,0.6-1.2,1.2-1.9,1.8c-0.7,0.6-1.4,1.1-2.2,1.6
		c-0.8,0.5-1.6,0.8-2.5,1.1c-0.9,0.3-1.8,0.4-2.7,0.4c-0.5,0-1.1-0.1-1.7-0.4c-0.6-0.3-1.2-0.6-1.8-1c-0.6-0.4-1.1-0.9-1.6-1.5
		c-0.5-0.5-0.9-1.1-1.2-1.7c-0.3,0.2-0.6,0.4-0.9,0.5c-0.3,0.1-0.6,0.2-0.7,0.2c-0.2,0-0.4,0-0.6,0s-0.5-0.1-0.8-0.2
		c-0.3-0.1-0.5-0.2-0.7-0.4C5.1,76.7,5,76.5,5,76.3c0-0.2,0.1-0.3,0.2-0.5C5.3,75.6,5.5,75.3,5.8,75.1z M17.7,68.3
		c-0.3,0.7-0.7,1.4-1.1,2c-0.4,0.6-0.9,1.2-1.4,1.7c-0.5,0.5-1,1.1-1.6,1.6c-0.5,0.5-1.1,1-1.6,1.4c0.1,0.2,0.2,0.4,0.4,0.6
		c0.2,0.2,0.3,0.3,0.5,0.5c0.2,0.1,0.4,0.2,0.6,0.3c0.2,0.1,0.4,0.1,0.6,0.1c0.6,0,1.2-0.1,1.7-0.4c0.5-0.2,1-0.6,1.4-1
		c0.4-0.4,0.7-0.9,0.9-1.4c0.2-0.5,0.3-1,0.3-1.5c0-0.3,0-0.7-0.1-1.1c0-0.4-0.1-0.7-0.2-1.1c-0.1-0.3-0.1-0.7-0.2-1
		C17.9,68.8,17.8,68.5,17.7,68.3z"/>
	<path fill="#FFFFFF" d="M42.4,65.1c-0.4,0.2-0.9,0.4-1.5,0.5c-0.6,0.2-1.3,0.3-2,0.5c-0.7,0.1-1.3,0.3-1.9,0.4
		c-0.6,0.1-1.1,0.2-1.4,0.3c-0.4,0.1-0.7,0.1-1,0.2c-0.3,0-0.5,0.1-0.7,0.1c-0.2,0-0.3,0.1-0.4,0.1c-0.1,0.1-0.2,0.2-0.3,0.3
		c-0.1,0.1-0.2,0.3-0.3,0.5c-0.1,0.2-0.3,0.5-0.4,0.9c-0.2,0.4-0.4,0.9-0.7,1.5c-0.3,0.7-0.6,1.4-0.9,2.1s-0.5,1.5-0.7,2.3
		c-0.2,0.8-0.3,1.5-0.3,2.1c0,0.3,0,0.5,0.1,0.8c0,0.2,0.1,0.4,0.3,0.6c0.4,0,0.8-0.1,1.3-0.3c0.5-0.2,1.1-0.5,1.7-0.9
		c0.6-0.4,1.2-0.8,1.9-1.3c0.6-0.5,1.3-1,1.9-1.5c0.6-0.5,1.2-1.1,1.7-1.6c0.5-0.5,0.9-1,1.3-1.5l2.4,1.5c-0.3,0.6-0.6,1.2-1.1,1.9
		c-0.5,0.7-1,1.4-1.6,2.1c-0.6,0.7-1.2,1.4-1.9,2.1c-0.7,0.7-1.3,1.3-2,1.8c-0.7,0.5-1.3,1-2,1.3s-1.3,0.5-1.8,0.5
		c-0.4-0.1-0.9-0.3-1.4-0.4c-0.5-0.1-1.1-0.3-1.7-0.5c-0.6-0.2-1.1-0.4-1.7-0.6c-0.6-0.2-1.1-0.5-1.5-0.8c-0.4-0.3-0.8-0.7-1.1-1.1
		c-0.3-0.4-0.4-0.9-0.4-1.4c0-1.5,0.2-3.1,0.7-4.7c0.5-1.6,1.2-3.2,2.1-4.7c-0.3,0-0.6,0.1-1,0.2c-0.4,0.1-0.9,0.1-1.3,0.2
		c-0.5,0.1-0.9,0.2-1.4,0.2c-0.5,0.1-0.9,0.1-1.3,0.2C21.2,69,20.9,69,20.5,69c-0.3,0-0.5,0-0.6,0c-0.4-0.1-0.7-0.3-0.7-0.5
		s0.1-0.4,0.4-0.6s0.7-0.4,1.1-0.6c0.5-0.2,1-0.4,1.5-0.6c0.5-0.2,1.1-0.3,1.6-0.5c0.5-0.1,0.9-0.2,1.3-0.3c0.7-0.1,1.3-0.3,1.7-0.4
		c0.4-0.1,0.7-0.2,0.9-0.4c0.2-0.1,0.4-0.3,0.6-0.6c0.2-0.2,0.4-0.6,0.7-1c0.2-0.2,0.4-0.6,0.6-1c0.2-0.4,0.5-0.8,0.8-1.3
		c0.3-0.5,0.6-0.9,0.9-1.4c0.3-0.5,0.7-0.9,1-1.3c0.3-0.4,0.7-0.7,1-0.9c0.3-0.2,0.7-0.4,1-0.4c0.7,0,1.3,0.1,1.9,0.4
		c0.6,0.2,1.1,0.6,1.7,1c-0.6,0.9-1.3,1.8-2,2.8c-0.7,0.9-1.3,1.9-1.8,3c0.3,0,0.7-0.1,1.2-0.1c0.5-0.1,1-0.1,1.5-0.2
		c0.5-0.1,1.1-0.2,1.7-0.3c0.6-0.1,1.1-0.2,1.7-0.3c0.5-0.1,1-0.2,1.5-0.2c0.5-0.1,0.9-0.1,1.2-0.2L42.4,65.1z"/>
	<path fill="#FFFFFF" d="M57.6,72.9c-0.2,0.5-0.4,0.9-0.8,1.3c-0.3,0.4-0.7,0.7-1.1,1c-0.4,0.3-0.8,0.5-1.3,0.6
		C54,75.9,53.6,76,53.1,76c-0.6,0-1.1-0.1-1.5-0.4c-0.3,0.8-0.7,1.6-1.2,2.2c-0.4,0.7-0.9,1.2-1.5,1.8c-0.6,0.5-1.2,1-1.8,1.5
		c-0.7,0.4-1.3,0.9-2.1,1.3c-0.1,0.1-0.2,0.1-0.4,0.1c-0.3,0-0.6-0.1-1-0.3c-0.4-0.2-0.8-0.4-1.2-0.6c-0.4-0.3-0.8-0.6-1.2-0.9
		s-0.8-0.6-1.2-0.9c-0.4-0.3-0.7-0.6-1-0.9s-0.5-0.5-0.7-0.6c0-0.2-0.1-0.4-0.1-0.6c0-0.2-0.1-0.4-0.1-0.7c0-0.2,0-0.4-0.1-0.6
		c0-0.2,0-0.3,0-0.4c0-0.6,0.1-1.2,0.3-1.9c0.2-0.6,0.5-1.3,0.8-1.9c0.3-0.6,0.7-1.2,1.1-1.8c0.4-0.6,0.8-1.1,1.1-1.5
		c0.3-0.4,0.7-0.8,1.2-1.2c0.5-0.4,1.1-0.8,1.7-1.1c0.6-0.3,1.2-0.6,1.9-0.8c0.6-0.2,1.2-0.3,1.8-0.3c0.6,0,1.2,0.2,1.8,0.5
		c0.6,0.4,1.1,0.8,1.5,1.3c0.4,0.5,0.8,1.1,1.1,1.7c0.3,0.6,0.4,1.2,0.4,1.7c0,0.1,0,0.2,0,0.4c0,0.1,0,0.3,0,0.4
		c0,0.1,0,0.3-0.1,0.4c0,0.1-0.1,0.2-0.1,0.3c0,0,0.1,0.1,0.1,0.1c0,0,0.1,0,0.1,0.1c0,0,0.1,0,0.2,0c0.1,0,0.2,0,0.4,0
		c0.2,0,0.4,0,0.6,0c0.2,0,0.4-0.1,0.6-0.2c0.2-0.1,0.4-0.2,0.6-0.4c0.2-0.2,0.4-0.4,0.7-0.7L57.6,72.9z M47.9,70.3
		c-0.2-0.1-0.3-0.2-0.5-0.2c-0.1,0-0.3,0-0.4,0.1c-0.1,0.1-0.3,0.2-0.4,0.3c-0.4,0.5-0.9,1-1.2,1.5c-0.4,0.5-0.7,1.1-1,1.6
		c-0.3,0.5-0.5,1.1-0.7,1.6s-0.3,1-0.3,1.5c0,0.1,0,0.2,0.1,0.3c0.1,0.1,0.2,0.1,0.3,0.1c0.2,0,0.4-0.1,0.7-0.3
		c0.3-0.2,0.6-0.4,0.9-0.6c0.3-0.2,0.6-0.5,0.9-0.8c0.3-0.3,0.5-0.5,0.7-0.7c0.3-0.4,0.6-0.7,0.8-1.1c0.2-0.4,0.5-0.8,0.7-1.2
		c-0.2-0.2-0.3-0.3-0.4-0.5c-0.1-0.2-0.2-0.4-0.2-0.5c0-0.2-0.1-0.4,0-0.6S47.9,70.5,47.9,70.3z"/>
	<path fill="#FFFFFF" d="M54.7,72.3c0.1-0.2,0.2-0.4,0.4-0.6c0.2-0.2,0.3-0.4,0.4-0.6c0.1-0.2,0.2-0.4,0.3-0.7
		c0.1-0.3,0.1-0.6,0.1-1c0-0.4,0-0.7,0.1-1.1c0-0.4,0-0.7,0.1-1.1c0-0.3,0.1-0.6,0.2-0.9c0.1-0.3,0.2-0.5,0.3-0.6
		c0.2-0.1,0.4-0.1,0.6-0.1c0.3,0,0.5,0.1,0.7,0.2c0.2,0.1,0.4,0.3,0.6,0.4c0.2,0.2,0.4,0.3,0.6,0.4c0.2,0.1,0.5,0.2,0.8,0.2
		c1.1,0,2.2-0.1,3.3-0.4c1.1-0.2,2-0.7,2.9-1.2c0.5-0.3,1-0.7,1.5-1.1s1-0.8,1.5-1.2c0.1-0.1,0.2-0.1,0.3-0.2c0.1,0,0.2-0.1,0.3-0.1
		c0.2,0.1,0.4,0.3,0.6,0.6c0.2,0.3,0.4,0.5,0.5,0.9c0.2,0.3,0.3,0.6,0.4,0.9c0.1,0.3,0.1,0.5,0.1,0.8c0,0.2-0.1,0.4-0.4,0.4
		c-0.3,0.1-0.6,0.3-0.9,0.6c-0.3,0.3-0.7,0.6-1,1.1c-0.3,0.4-0.7,0.9-1,1.4c-0.3,0.5-0.7,1-1,1.5c-0.3,0.5-0.6,0.9-0.9,1.4
		c-0.3,0.4-0.5,0.8-0.7,1.1c-0.5,0.7-0.8,1.5-1.2,2.2c-0.3,0.8-0.5,1.5-0.5,2.3c0,0.6,0,1,0.1,1.2c0.1,0.2,0.2,0.3,0.3,0.3
		c0.3,0,0.6-0.1,1-0.3c0.4-0.2,0.9-0.5,1.4-0.9c0.5-0.4,1-0.8,1.5-1.3c0.5-0.5,1-0.9,1.5-1.4c0.5-0.5,1-0.9,1.4-1.3
		c0.4-0.4,0.8-0.8,1-1.1c0.4-0.4,0.7-0.8,1-1.1c0.2-0.3,0.4-0.5,0.4-0.5c0.1-0.1,0.3-0.2,0.5-0.1c0.2,0,0.4,0.1,0.6,0.3
		c0.2,0.1,0.4,0.3,0.5,0.5c0.1,0.2,0.2,0.3,0.2,0.4c0,0.2,0,0.4-0.1,0.7c-0.1,0.2-0.2,0.5-0.4,0.8c-0.1,0.3-0.3,0.6-0.5,0.9
		c-0.2,0.3-0.4,0.6-0.6,0.9c-0.5,0.6-0.9,1.3-1.4,2.1s-1,1.4-1.5,2.2c-0.6,0.7-1.2,1.4-1.9,2.1c-0.7,0.7-1.6,1.3-2.6,1.9
		c-0.6-0.1-1.1-0.3-1.7-0.6c-0.6-0.2-1.2-0.5-1.8-0.8c-0.6-0.3-1.1-0.6-1.7-0.9c-0.5-0.3-1-0.7-1.5-1c-0.8-0.6-1.2-1.4-1.2-2.4
		c0-0.7,0.1-1.4,0.4-2.2c0.2-0.8,0.5-1.5,0.9-2.3c0.3-0.7,0.7-1.4,1-2c0.4-0.6,0.7-1.1,0.9-1.5c-0.2,0.1-0.5,0.2-0.7,0.3
		c-0.3,0.1-0.5,0.1-0.8,0.1c-0.3,0-0.6,0-0.9-0.1c-0.3-0.1-0.5-0.2-0.7-0.4c-0.1,0.4-0.2,0.9-0.4,1.4c-0.2,0.5-0.4,1-0.7,1.4
		c-0.3,0.4-0.6,0.8-0.9,1.1c-0.3,0.3-0.7,0.4-1,0.4c-0.2,0-0.3-0.1-0.4-0.2L54.7,72.3z"/>
	<path fill="#FFFFFF" d="M85.1,71.2c0.2,0.2,0.3,0.5,0.5,0.6c0.2,0.2,0.3,0.4,0.5,0.5c0.1,0.1,0.3,0.2,0.3,0.3
		c0.1,0.1,0.1,0.1,0.1,0.2c-0.2,0.4-0.5,0.9-0.9,1.5c-0.4,0.6-0.8,1.3-1.3,2c-0.5,0.7-1.1,1.4-1.6,2.1c-0.6,0.7-1.1,1.3-1.7,1.9
		c-0.6,0.6-1.1,1-1.6,1.4c-0.5,0.4-0.9,0.5-1.3,0.5c-0.2,0-0.5-0.1-0.9-0.2c-0.4-0.1-0.7-0.2-1.1-0.4c-0.4-0.2-0.8-0.3-1.2-0.5
		c-0.4-0.2-0.8-0.4-1.1-0.6c-0.4-0.2-0.7-0.4-0.9-0.6c-0.3-0.2-0.4-0.3-0.5-0.4c-0.2-0.3-0.4-0.7-0.5-1.1c-0.1-0.4-0.1-0.8-0.1-1.3
		c0-0.6,0.1-1.3,0.3-2.2c0.2-0.8,0.4-1.7,0.7-2.6c0.3-0.9,0.7-1.7,1-2.6c0.4-0.8,0.8-1.6,1.2-2.3c0.4-0.7,0.8-1.2,1.3-1.6
		c0.4-0.4,0.8-0.6,1.1-0.6c0.2,0,0.4,0.1,0.6,0.2c0.3,0.2,0.6,0.5,0.8,0.8c0.2,0.3,0.4,0.6,0.6,0.9c0.2,0.3,0.3,0.6,0.4,0.9
		c0.1,0.3,0.2,0.7,0.3,1.1c-0.2,0.2-0.4,0.5-0.7,0.9c-0.2,0.4-0.5,0.8-0.7,1.3s-0.5,1-0.7,1.5c-0.2,0.5-0.4,1-0.6,1.6
		c-0.2,0.5-0.3,1-0.4,1.5c-0.1,0.5-0.2,0.9-0.2,1.3c0,0.3,0,0.6,0.1,0.8c0.6-0.3,1.3-0.7,2-1.3c0.7-0.6,1.4-1.2,2.1-1.8
		c0.7-0.6,1.4-1.3,2.1-2C84,72.3,84.6,71.7,85.1,71.2z M78.5,59.1c0.2,0,0.5,0,0.7-0.1c0.2,0,0.4,0,0.7,0c0.2,0,0.5,0,0.7,0
		c0.3,0,0.5,0.1,0.8,0.3c0.3,0.2,0.5,0.5,0.8,0.8c0.2,0.3,0.4,0.8,0.6,1.2c0.2,0.5,0.2,1,0.2,1.5c0,0.4-0.1,0.7-0.3,1
		c-0.2,0.3-0.6,0.4-1.1,0.4c-0.5,0-1-0.1-1.5-0.2c-0.5-0.1-0.9-0.4-1.2-0.6c-0.3-0.3-0.6-0.6-0.8-1c-0.2-0.4-0.3-0.8-0.3-1.2
		c0-0.4,0.1-0.7,0.2-1.1C78.1,59.8,78.3,59.5,78.5,59.1z"/>
	<path fill="#FFFFFF" d="M101.8,74.5c-0.3,0.4-0.6,0.8-1.1,1.3c-0.5,0.5-1,1.1-1.6,1.6c-0.6,0.6-1.2,1.1-1.9,1.7
		c-0.7,0.5-1.3,1-2,1.5c-0.7,0.4-1.3,0.8-1.9,1.1c-0.6,0.3-1.1,0.4-1.6,0.4c-0.1,0-0.3,0-0.5-0.1c-0.2-0.1-0.5-0.2-0.8-0.3
		c-0.3-0.1-0.6-0.2-1-0.4c-0.3-0.1-0.7-0.3-1-0.4c-0.3-0.1-0.6-0.3-0.9-0.4c-0.3-0.1-0.5-0.2-0.6-0.3c-0.5-0.3-0.9-0.6-1.3-0.9
		c-0.4-0.3-0.7-0.7-1-1.1c-0.3-0.4-0.5-0.9-0.6-1.4c-0.1-0.5-0.2-1-0.2-1.6c0-0.8,0.1-1.6,0.4-2.4c0.3-0.8,0.6-1.6,1-2.5
		c0.4-0.8,1-1.6,1.6-2.3c0.6-0.7,1.3-1.4,2-1.9c0.7-0.6,1.4-1,2.2-1.3c0.8-0.3,1.5-0.5,2.3-0.5c1.2,0,2.2,0.3,2.8,0.9s1,1.4,1,2.5
		c0,0.7-0.1,1.3-0.3,1.8c-0.2,0.5-0.5,1.1-0.9,1.5c-0.4,0.5-0.9,0.9-1.4,1.2c-0.5,0.4-1.1,0.7-1.6,1c-0.6,0.3-1.1,0.6-1.7,0.8
		c-0.6,0.2-1.1,0.5-1.6,0.7c-0.2,0.3-0.3,0.6-0.4,0.9c-0.1,0.3-0.1,0.6-0.1,1.1c0,0.5,0.1,0.8,0.3,1.1c0.2,0.3,0.7,0.4,1.3,0.4
		c0.7,0,1.4-0.2,2.1-0.5c0.8-0.4,1.5-0.8,2.2-1.4c0.7-0.5,1.4-1.1,2.1-1.7c0.7-0.6,1.2-1.1,1.7-1.6c0.1-0.1,0.3-0.3,0.5-0.6
		c0.2-0.2,0.5-0.5,0.7-0.7c0.3-0.2,0.6-0.4,0.9-0.6c0.3-0.2,0.6-0.3,0.9-0.3c0.1,0,0.2,0,0.3,0c0.1,0,0.2,0,0.3,0
		c0.1,0,0.2,0.1,0.3,0.2c0.1,0.1,0.1,0.3,0.1,0.5c0,0.6-0.1,1.1-0.3,1.6C102.3,73.6,102.1,74,101.8,74.5z M91,70.3
		c0.4,0,0.7-0.2,1.1-0.4c0.3-0.2,0.7-0.5,1-0.8c0.3-0.3,0.6-0.6,0.8-1c0.2-0.4,0.5-0.7,0.6-1c-0.1,0-0.1-0.1-0.2-0.1
		c0,0-0.1-0.1-0.1-0.1c-0.4,0-0.8,0.2-1.1,0.4c-0.3,0.2-0.7,0.5-0.9,0.8c-0.3,0.3-0.5,0.7-0.7,1S91.1,70,91,70.3z"/>
	<path fill="#FFFFFF" d="M96.4,75.1c0.4-0.4,0.8-0.8,1.1-1.2c0.3-0.3,0.7-0.6,1-0.9c0.3-0.3,0.6-0.5,0.9-0.8
		c0.3-0.3,0.6-0.5,0.9-0.8c0.3-0.3,0.6-0.6,0.9-0.9c0.3-0.3,0.7-0.7,1.1-1.2c0.6-0.7,1.2-1.4,1.8-2.2c0.6-0.8,1-1.6,1.5-2.4
		c0.2-0.4,0.3-0.8,0.3-1.3c0-0.4,0.1-0.9,0.1-1.3c0-0.4,0.1-0.9,0.1-1.3c0.1-0.4,0.2-0.8,0.5-1.2c0,0,0.1,0,0.1,0
		c0.2,0,0.4,0.1,0.8,0.3c0.3,0.2,0.7,0.4,1,0.7c0.4,0.3,0.8,0.6,1.1,1c0.4,0.4,0.7,0.7,1.1,1.1c0.3,0.3,0.6,0.7,0.8,1
		c0.2,0.3,0.3,0.5,0.4,0.7c0,0.1,0,0.1,0,0.2c0,0.1,0,0.1,0,0.2c0,0.3,0,0.6-0.1,1c-0.1,0.3-0.1,0.7-0.1,1c0,0.1,0.1,0.5,0.3,0.9
		c0.2,0.5,0.3,1.1,0.5,1.8c0.2,0.7,0.4,1.4,0.5,2.2c0.1,0.8,0.2,1.6,0.1,2.4l-0.2,0.6l0.8-1c0.2-0.2,0.4-0.4,0.6-0.5
		c0.2-0.2,0.4-0.3,0.6-0.5c0.2-0.2,0.4-0.4,0.7-0.6c0.2-0.2,0.5-0.5,0.9-0.8c0,0,0.1,0.1,0.2,0.3s0.3,0.4,0.5,0.6
		c0.2,0.2,0.4,0.4,0.5,0.6c0.2,0.2,0.2,0.3,0.2,0.3c-0.3,0.5-0.7,1.1-1.2,1.7c-0.5,0.6-1,1.2-1.6,1.9c-0.6,0.6-1.2,1.2-1.9,1.8
		c-0.7,0.6-1.4,1.1-2.2,1.6c-0.8,0.5-1.6,0.8-2.5,1.1c-0.9,0.3-1.8,0.4-2.7,0.4c-0.5,0-1.1-0.1-1.7-0.4c-0.6-0.3-1.2-0.6-1.8-1
		c-0.6-0.4-1.1-0.9-1.6-1.5c-0.5-0.5-0.9-1.1-1.2-1.7c-0.3,0.2-0.6,0.4-0.9,0.5c-0.3,0.1-0.6,0.2-0.7,0.2c-0.2,0-0.4,0-0.6,0
		c-0.3,0-0.5-0.1-0.8-0.2c-0.3-0.1-0.5-0.2-0.7-0.4c-0.2-0.2-0.3-0.4-0.3-0.6c0-0.2,0.1-0.3,0.2-0.5C96,75.6,96.1,75.3,96.4,75.1z
		 M108.3,68.3c-0.3,0.7-0.7,1.4-1.1,2c-0.4,0.6-0.9,1.2-1.4,1.7c-0.5,0.5-1,1.1-1.6,1.6c-0.5,0.5-1.1,1-1.6,1.4
		c0.1,0.2,0.2,0.4,0.4,0.6c0.2,0.2,0.3,0.3,0.5,0.5c0.2,0.1,0.4,0.2,0.6,0.3c0.2,0.1,0.4,0.1,0.6,0.1c0.6,0,1.2-0.1,1.7-0.4
		c0.5-0.2,1-0.6,1.4-1c0.4-0.4,0.7-0.9,0.9-1.4c0.2-0.5,0.3-1,0.3-1.5c0-0.3,0-0.7-0.1-1.1c0-0.4-0.1-0.7-0.2-1.1
		c-0.1-0.3-0.1-0.7-0.2-1C108.5,68.8,108.4,68.5,108.3,68.3z"/>
</g>
<path fill="#FFFFFF" d="M62.5,3.1c-13.3,0-24.1,10.8-24.1,24.1s10.8,24.1,24.1,24.1s24.1-10.8,24.1-24.1S75.8,3.1,62.5,3.1z
	 M72.4,37.1c0,0.5-0.6,1-1.1,1c-0.6,0-1.3-0.3-1.3-1c0,0,0-14.6,0-14.9c0-0.3,0-0.3-0.3-0.5c-0.3-0.2-11.5-6.2-11.5-6.2
	c-0.2-0.1-0.9-0.3-1.9,0.3c-1,0.5-1.5,1-1.6,1.3l11.7,6.5c0.3,0.2,0.5,0.5,0.5,0.8v15.7c0,0.3-0.2,0.6-0.5,0.8
	C66.1,41,65.9,41,65.7,41c-0.2,0-0.4,0-0.5-0.1c-0.3-0.2-11.1-6.9-11.8-7.4c-0.3-0.2-0.7-0.6-0.8-1l-0.2-14.9c0-0.3,0-0.8,0.4-1.5
	c1-1.6,4.5-3.4,6.2-2.4l12.8,6.6c0.3,0.2,0.5,0.5,0.5,0.8V37.1z"/>
</svg>
