<?xml version="1.0" encoding="utf-8"?>
<!-- Generator: Adobe Illustrator 18.1.0, SVG Export Plug-In . SVG Version: 6.00 Build 0)  -->
<!DOCTYPE svg PUBLIC "-//W3C//DTD SVG 1.1//EN" "http://www.w3.org/Graphics/SVG/1.1/DTD/svg11.dtd">
<svg version="1.1" id="Layer_1" xmlns="http://www.w3.org/2000/svg" xmlns:xlink="http://www.w3.org/1999/xlink" x="0px" y="0px"
	 viewBox="0 0 240 1680" enable-background="new 0 0 240 1680" xml:space="preserve">
<rect fill="none" width="240" height="240"/>
<path fill="#86BBE6" d="M176.9,120.2c0-2.4-0.2-4.8-0.5-7.1l27.9-3.4c0.6,4.8,0.8,8.4,0.6,13.3l-28.1-1
	C176.9,121.4,176.9,120.8,176.9,120.2z"/>
<path fill="#E5B313" d="M173.8,101.5l26.6-9.2c1.9,5.5,3.3,11.5,4,17.3l-27.9,3.4C176,109.1,175.1,105.2,173.8,101.5z"/>
<path fill="#C36B25" d="M168.2,89.9L192.1,75c3.7,5.9,6,10.8,8.3,17.4l-26.6,9.2C172.4,97.4,170.5,93.5,168.2,89.9z"/>
<path fill="#9C1F31" d="M158.8,78.4L178,57.8c5.6,5.3,10,10.6,14.1,17.1l-23.9,14.9C165.6,85.7,162.4,81.8,158.8,78.4z"/>
<path fill="#777AA4" d="M120,63.1V35c22.3,0,41.6,7.6,58,22.8l-19.2,20.6C148.6,68.9,135,63.1,120,63.1z"/>
<path fill="#0054A6" d="M120,35v28.1c-0.1,0-0.1,0-0.2,0c-31.5,0-57.1,25.6-57.1,57.1c0,31.5,25.6,57.1,57.1,57.1
	c30.9,0,56.1-24.6,57-55.3l28.1,1c-1.6,46.2-38.8,82-84.9,82c-46.9,0-85-38.1-85-85C35,73.1,73,35,120,35z"/>
<rect y="240" fill="none" width="240" height="240"/>
<path fill="#86BBE6" d="M176.9,360.2c0-2.4-0.2-4.8-0.5-7.1l27.9-3.4c0.6,4.8,0.8,8.4,0.6,13.3l-28.1-1
	C176.9,361.4,176.9,360.8,176.9,360.2z"/>
<path fill="#E5B313" d="M173.8,341.5l26.6-9.2c1.9,5.5,3.3,11.5,4,17.3l-27.9,3.4C176,349.1,175.1,345.2,173.8,341.5z"/>
<path fill="#C36B25" d="M168.2,329.9l23.9-14.9c3.7,5.9,6,10.8,8.3,17.4l-26.6,9.2C172.4,337.4,170.5,333.5,168.2,329.9z"/>
<path fill="#9C1F31" d="M158.8,318.4l19.2-20.6c5.6,5.3,10,10.6,14.1,17.1l-23.9,14.9C165.6,325.7,162.4,321.8,158.8,318.4z"/>
<path fill="#777AA4" d="M120,303.1V275c22.3,0,41.6,7.6,58,22.8l-19.2,20.6C148.6,308.9,135,303.1,120,303.1z"/>
<path fill="#0054A6" stroke="#0555A5" stroke-width="3" stroke-miterlimit="10" d="M120,275v28.1c-0.1,0-0.1,0-0.2,0
	c-31.5,0-57.1,25.6-57.1,57.1s25.6,57.1,57.1,57.1c30.9,0,56.1-24.6,57-55.3l28.1,1c-1.6,46.2-38.8,82-84.9,82
	c-46.9,0-85-38.1-85-85C35,313.1,73,275,120,275z"/>
<rect y="480" fill="none" width="240" height="240"/>
<path fill="#86BBE6" d="M176.9,600.2c0-2.4-0.2-4.8-0.5-7.1l27.9-3.4c0.6,4.8,0.8,8.4,0.6,13.3l-28.1-1
	C176.9,601.4,176.9,600.8,176.9,600.2z"/>
<path fill="#E5B313" d="M173.8,581.5l26.6-9.2c1.9,5.5,3.3,11.5,4,17.3l-27.9,3.4C176,589.1,175.1,585.2,173.8,581.5z"/>
<path fill="#C36B25" d="M168.2,569.9l23.9-14.9c3.7,5.9,6,10.8,8.3,17.4l-26.6,9.2C172.4,577.4,170.5,573.5,168.2,569.9z"/>
<path fill="#9C1F31" d="M158.8,558.4l19.2-20.6c5.6,5.3,10,10.6,14.1,17.1l-23.9,14.9C165.6,565.7,162.4,561.8,158.8,558.4z"/>
<path fill="#0054A6" d="M120,515v28.1c-0.1,0-0.1,0-0.2,0c-31.5,0-57.1,25.6-57.1,57.1c0,31.5,25.6,57.1,57.1,57.1
	c30.9,0,56.1-24.6,57-55.3l28.1,1c-1.6,46.2-38.8,82-84.9,82c-46.9,0-85-38.1-85-85S73,515,120,515z"/>
<rect y="720" fill="none" width="240" height="240"/>
<path fill="#86BBE6" d="M176.9,840.2c0-2.4-0.2-4.8-0.5-7.1l27.9-3.4c0.6,4.8,0.8,8.4,0.6,13.3l-28.1-1
	C176.9,841.4,176.9,840.8,176.9,840.2z"/>
<path fill="#E5B313" d="M173.8,821.5l26.6-9.2c1.9,5.5,3.3,11.5,4,17.3l-27.9,3.4C176,829.1,175.1,825.2,173.8,821.5z"/>
<path fill="#C36B25" d="M168.2,809.9l23.9-14.9c3.7,5.9,6,10.8,8.3,17.4l-26.6,9.2C172.4,817.4,170.5,813.5,168.2,809.9z"/>
<path fill="#777AA4" d="M120,783.1V755c22.3,0,41.6,7.6,58,22.8l-19.2,20.6C148.6,788.9,135,783.1,120,783.1z"/>
<path fill="#0054A6" d="M120,755v28.1c-0.1,0-0.1,0-0.2,0c-31.5,0-57.1,25.6-57.1,57.1c0,31.5,25.6,57.1,57.1,57.1
	c30.9,0,56.1-24.6,57-55.3l28.1,1c-1.6,46.2-38.8,82-84.9,82c-46.9,0-85-38.1-85-85S73,755,120,755z"/>
<rect y="960" fill="none" width="240" height="240"/>
<path fill="#86BBE6" d="M176.9,1080.2c0-2.4-0.2-4.8-0.5-7.1l27.9-3.4c0.6,4.8,0.8,8.4,0.6,13.3l-28.1-1
	C176.9,1081.4,176.9,1080.8,176.9,1080.2z"/>
<path fill="#E5B313" d="M173.8,1061.5l26.6-9.2c1.9,5.5,3.3,11.5,4,17.3l-27.9,3.4C176,1069.1,175.1,1065.2,173.8,1061.5z"/>
<path fill="#9C1F31" d="M158.8,1038.4l19.2-20.6c5.6,5.3,10,10.6,14.1,17.1l-23.9,14.9C165.6,1045.7,162.4,1041.8,158.8,1038.4z"/>
<path fill="#777AA4" d="M120,1023.1V995c22.3,0,41.6,7.6,58,22.8l-19.2,20.6C148.6,1028.9,135,1023.1,120,1023.1z"/>
<path fill="#0054A6" d="M120,995v28.1c-0.1,0-0.1,0-0.2,0c-31.5,0-57.1,25.6-57.1,57.1c0,31.5,25.6,57.1,57.1,57.1
	c30.9,0,56.1-24.6,57-55.3l28.1,1c-1.6,46.2-38.8,82-84.9,82c-46.9,0-85-38.1-85-85S73,995,120,995z"/>
<rect y="1200" fill="none" width="240" height="240"/>
<path fill="#86BBE6" d="M176.9,1320.2c0-2.4-0.2-4.8-0.5-7.1l27.9-3.4c0.6,4.8,0.8,8.4,0.6,13.3l-28.1-1
	C176.9,1321.4,176.9,1320.8,176.9,1320.2z"/>
<path fill="#C36B25" d="M168.2,1289.9l23.9-14.9c3.7,5.9,6,10.8,8.3,17.4l-26.6,9.2C172.4,1297.4,170.5,1293.5,168.2,1289.9z"/>
<path fill="#9C1F31" d="M158.8,1278.4l19.2-20.6c5.6,5.3,10,10.6,14.1,17.1l-23.9,14.9C165.6,1285.7,162.4,1281.8,158.8,1278.4z"/>
<path fill="#777AA4" d="M120,1263.1V1235c22.3,0,41.6,7.6,58,22.8l-19.2,20.6C148.6,1268.9,135,1263.1,120,1263.1z"/>
<path fill="#0054A6" d="M120,1235v28.1c-0.1,0-0.1,0-0.2,0c-31.5,0-57.1,25.6-57.1,57.1c0,31.5,25.6,57.1,57.1,57.1
	c30.9,0,56.1-24.6,57-55.3l28.1,1c-1.6,46.2-38.8,82-84.9,82c-46.9,0-85-38.1-85-85S73,1235,120,1235z"/>
<rect y="1440" fill="none" width="240" height="240"/>
<path fill="#E5B313" d="M173.8,1541.5l26.6-9.2c1.9,5.5,3.3,11.5,4,17.3l-27.9,3.4C176,1549.1,175.1,1545.2,173.8,1541.5z"/>
<path fill="#C36B25" d="M168.2,1529.9l23.9-14.9c3.7,5.9,6,10.8,8.3,17.4l-26.6,9.2C172.4,1537.4,170.5,1533.5,168.2,1529.9z"/>
<path fill="#9C1F31" d="M158.8,1518.4l19.2-20.6c5.6,5.3,10,10.6,14.1,17.1l-23.9,14.9C165.6,1525.7,162.4,1521.8,158.8,1518.4z"/>
<path fill="#777AA4" d="M120,1503.1V1475c22.3,0,41.6,7.6,58,22.8l-19.2,20.6C148.6,1508.9,135,1503.1,120,1503.1z"/>
<path fill="#0054A6" d="M120,1475v28.1c-0.1,0-0.1,0-0.2,0c-31.5,0-57.1,25.6-57.1,57.1c0,31.5,25.6,57.1,57.1,57.1
	c30.9,0,56.1-24.6,57-55.3l28.1,1c-1.6,46.2-38.8,82-84.9,82c-46.9,0-85-38.1-85-85S73,1475,120,1475z"/>
<path fill="#777AA4" stroke="#777AA4" stroke-width="3" stroke-miterlimit="10" d="M120,543.1V515c22.3,0,41.6,7.6,58,22.8
	l-19.2,20.6C148.6,548.9,135,543.1,120,543.1z"/>
<path fill="#9C1F31" stroke="#9C1F31" stroke-width="3" stroke-miterlimit="10" d="M158.8,798.4l19.2-20.6
	c5.6,5.3,10,10.6,14.1,17.1l-23.9,14.9C165.6,805.7,162.4,801.8,158.8,798.4z"/>
<path fill="#C36B25" stroke="#C36B25" stroke-width="3" stroke-miterlimit="10" d="M168.2,1049.9l23.9-14.9c3.7,5.9,6,10.8,8.3,17.4
	l-26.6,9.2C172.4,1057.4,170.5,1053.5,168.2,1049.9z"/>
<path fill="#E5B313" stroke="#E5B313" stroke-width="2" stroke-miterlimit="10" d="M173.8,1301.5l26.6-9.2c1.9,5.5,3.3,11.5,4,17.3
	l-27.9,3.4C176,1309.1,175.1,1305.2,173.8,1301.5z"/>
<path fill="#86BBE6" stroke="#86BBE6" stroke-width="3" stroke-miterlimit="10" d="M176.9,1560.2c0-2.4-0.2-4.8-0.5-7.1l27.9-3.4
	c0.6,4.8,0.8,8.4,0.6,13.3l-28.1-1C176.9,1561.4,176.9,1560.8,176.9,1560.2z"/>
</svg>
