<?xml version="1.0" encoding="utf-8"?>
<!-- Generator: Adobe Illustrator 18.1.0, SVG Export Plug-In . SVG Version: 6.00 Build 0)  -->
<!DOCTYPE svg PUBLIC "-//W3C//DTD SVG 1.1//EN" "http://www.w3.org/Graphics/SVG/1.1/DTD/svg11.dtd">
<svg version="1.1" id="Layer_1" xmlns="http://www.w3.org/2000/svg" xmlns:xlink="http://www.w3.org/1999/xlink" x="0px" y="0px"
	 viewBox="0 0 240 1200" enable-background="new 0 0 240 1200" xml:space="preserve">
<path fill="#9C1F31" d="M174.3,102.4l26.5-8.6c-3.9-12.1-9.1-21.1-17.7-30.6l-20.7,18.7C167.7,87.7,171.8,94.7,174.3,102.4z"/>
<path fill="#C36B25" d="M175.8,108.1l27.3-5.8c-0.6-2.9-1.4-5.7-2.3-8.6l-26.5,8.6C174.9,104.2,175.4,106.2,175.8,108.1z"/>
<path fill="#777AA4" d="M162.4,81.8l20.7-18.7C166.6,44.7,144.8,35,120,35v27.9C136.8,62.9,152,70.2,162.4,81.8z"/>
<path fill="#0054A6" d="M203.1,102.3l-27.3,5.8c0.8,3.8,1.2,7.8,1.2,11.9c0,31.5-25.6,57.1-57.1,57.1c-31.5,0-57.1-25.6-57.1-57.1
	S88.5,62.9,120,62.9V35C73,35,35,73.1,35,120s38.1,85,85,85s85-38.1,85-85C205,113.6,204.5,108.6,203.1,102.3z"/>
<rect fill="none" width="240" height="240"/>
<path fill="#9C1F31" d="M174.3,342.4l26.5-8.6c-3.9-12.1-9.1-21.1-17.7-30.6l-20.7,18.7C167.7,327.7,171.8,334.7,174.3,342.4z"/>
<path fill="#C36B25" d="M175.8,348.1l27.3-5.8c-0.6-2.9-1.4-5.7-2.3-8.6l-26.5,8.6C174.9,344.2,175.4,346.2,175.8,348.1z"/>
<path fill="#777AA4" d="M162.4,321.8l20.7-18.7C166.6,284.7,144.8,275,120,275v27.9C136.8,302.9,152,310.2,162.4,321.8z"/>
<path fill="#0054A6" stroke="#0555A5" stroke-width="2" stroke-miterlimit="10" d="M203.1,342.3l-27.3,5.8c0.8,3.8,1.2,7.8,1.2,11.9
	c0,31.5-25.6,57.1-57.1,57.1c-31.5,0-57.1-25.6-57.1-57.1s25.6-57.1,57.1-57.1V275c-46.9,0-85,38.1-85,85s38.1,85,85,85
	s85-38.1,85-85C205,353.6,204.5,348.6,203.1,342.3z"/>
<rect y="240" fill="none" width="240" height="240"/>
<path fill="#9C1F31" d="M174.3,582.4l26.5-8.6c-3.9-12.1-9.1-21.1-17.7-30.6l-20.7,18.7C167.7,567.7,171.8,574.7,174.3,582.4z"/>
<path fill="#C36B25" d="M175.8,588.1l27.3-5.8c-0.6-2.9-1.4-5.7-2.3-8.6l-26.5,8.6C174.9,584.2,175.4,586.2,175.8,588.1z"/>
<path fill="#0054A6" d="M203.1,582.3l-27.3,5.8c0.8,3.8,1.2,7.8,1.2,11.9c0,31.5-25.6,57.1-57.1,57.1c-31.5,0-57.1-25.6-57.1-57.1
	s25.6-57.1,57.1-57.1V515c-46.9,0-85,38.1-85,85s38.1,85,85,85s85-38.1,85-85C205,593.6,204.5,588.6,203.1,582.3z"/>
<rect y="480" fill="none" width="240" height="240"/>
<path fill="#C36B25" d="M175.8,828.1l27.3-5.8c-0.6-2.9-1.4-5.7-2.3-8.6l-26.5,8.6C174.9,824.2,175.4,826.2,175.8,828.1z"/>
<path fill="#777AA4" d="M162.4,801.8l20.7-18.7C166.6,764.7,144.8,755,120,755v27.9C136.8,782.9,152,790.2,162.4,801.8z"/>
<path fill="#0054A6" d="M203.1,822.3l-27.3,5.8c0.8,3.8,1.2,7.8,1.2,11.9c0,31.5-25.6,57.1-57.1,57.1c-31.5,0-57.1-25.6-57.1-57.1
	s25.6-57.1,57.1-57.1V755c-46.9,0-85,38.1-85,85s38.1,85,85,85s85-38.1,85-85C205,833.6,204.5,828.6,203.1,822.3z"/>
<rect y="720" fill="none" width="240" height="240"/>
<path fill="#9C1F31" d="M174.3,1062.4l26.5-8.6c-3.9-12.1-9.1-21.1-17.7-30.6l-20.7,18.7C167.7,1047.7,171.8,1054.7,174.3,1062.4z"
	/>
<path fill="#777AA4" d="M162.4,1041.8l20.7-18.7c-16.6-18.4-38.4-28.1-63.2-28.1v27.9C136.8,1022.9,152,1030.2,162.4,1041.8z"/>
<path fill="#0054A6" d="M203.1,1062.3l-27.3,5.8c0.8,3.8,1.2,7.8,1.2,11.9c0,31.5-25.6,57.1-57.1,57.1c-31.5,0-57.1-25.6-57.1-57.1
	s25.6-57.1,57.1-57.1V995c-46.9,0-85,38.1-85,85s38.1,85,85,85s85-38.1,85-85C205,1073.6,204.5,1068.6,203.1,1062.3z"/>
<rect y="960" fill="none" width="240" height="240"/>
<path fill="#9C1F31" stroke="#9C1F31" stroke-width="3" stroke-miterlimit="10" d="M174.3,822.4l26.5-8.6
	c-3.9-12.1-9.1-21.1-17.7-30.6l-20.7,18.7C167.7,807.7,171.8,814.7,174.3,822.4z"/>
<path fill="#C36B25" stroke="#C36B25" stroke-width="3" stroke-miterlimit="10" d="M175.8,1068.1l27.3-5.8c-0.6-2.9-1.4-5.7-2.3-8.6
	l-26.5,8.6C174.9,1064.2,175.4,1066.2,175.8,1068.1z"/>
<path fill="#777AA4" stroke="#777AA4" stroke-width="3" stroke-miterlimit="10" d="M162.4,561.8l20.7-18.7
	C166.6,524.7,144.8,515,120,515v27.9C136.8,542.9,152,550.2,162.4,561.8z"/>
</svg>
