<?xml version="1.0" encoding="utf-8"?>
<!-- Generator: Adobe Illustrator 18.1.0, SVG Export Plug-In . SVG Version: 6.00 Build 0)  -->
<!DOCTYPE svg PUBLIC "-//W3C//DTD SVG 1.1//EN" "http://www.w3.org/Graphics/SVG/1.1/DTD/svg11.dtd">
<svg version="1.1" id="Layer_1" xmlns="http://www.w3.org/2000/svg" xmlns:xlink="http://www.w3.org/1999/xlink" x="0px" y="0px"
	 viewBox="0 0 73.7 73.7" enable-background="new 0 0 73.7 73.7" xml:space="preserve">
<path fill="#FFFFFF" d="M36.4,1C16.9,1,1,16.9,1,36.4C1,56,16.9,71.9,36.4,71.9C56,71.9,71.9,56,71.9,36.4C71.9,16.9,56,1,36.4,1z
	 M50.8,30c0,0.3,0,0.6,0,0.9c0,9.2-7,19.9-19.9,19.9c-3.9,0-7.6-1.2-10.7-3.1c0.5,0.1,1.1,0.1,1.7,0.1c3.3,0,6.3-1.1,8.7-3
	c-3.1-0.1-5.6-2.1-6.5-4.8C24.5,40,25,40,25.4,40c0.6,0,1.3-0.1,1.8-0.2c-3.2-0.6-5.6-3.5-5.6-6.8c0,0,0-0.1,0-0.1
	c0.9,0.5,2,0.8,3.2,0.9c-1.9-1.3-3.1-3.4-3.1-5.8c0-1.3,0.3-2.5,0.9-3.5c3.4,4.2,8.6,7,14.4,7.3c-0.1-0.5-0.2-1-0.2-1.6
	c0-3.9,3.1-7,7-7c2,0,3.8,0.8,5.1,2.2c1.6-0.3,3.1-0.9,4.4-1.7c-0.5,1.6-1.6,3-3.1,3.9c1.4-0.2,2.8-0.5,4-1.1
	C53.4,27.8,52.2,29,50.8,30z"/>
</svg>
