<?xml version="1.0" encoding="utf-8"?>
<!-- Generator: Adobe Illustrator 18.1.0, SVG Export Plug-In . SVG Version: 6.00 Build 0)  -->
<!DOCTYPE svg PUBLIC "-//W3C//DTD SVG 1.1//EN" "http://www.w3.org/Graphics/SVG/1.1/DTD/svg11.dtd">
<svg version="1.1" id="Layer_1" xmlns="http://www.w3.org/2000/svg" xmlns:xlink="http://www.w3.org/1999/xlink" x="0px" y="0px"
	 viewBox="0 0 73.7 73.7" enable-background="new 0 0 73.7 73.7" xml:space="preserve">
<g>
	<path fill="#FFFFFF" d="M36.4,1C16.9,1,1,16.9,1,36.4C1,56,16.9,71.9,36.4,71.9C56,71.9,71.9,56,71.9,36.4C71.9,16.9,56,1,36.4,1z
		 M19.7,26.6c0.5-0.2,6.7-2.5,7.7-2.5h1.7v-5.8h14.7v5.8h1.7c1.1,0,7.2,2.3,7.7,2.5c0.5,0.2,0.7,1.4-0.4,1.4H20
		C18.9,28,19.1,26.8,19.7,26.6z M55.4,39.2c0,1.1-1.1,2.3-2.1,2.3h-3.8l1.7,9.7H21.8l1.7-9.7h-3.8c-1.1,0-2.1-1.3-2.1-2.3v-6.8
		c0-1.1,1.1-2.3,2.1-2.3h33.6c1.1,0,2.1,1.3,2.1,2.3V39.2z"/>
	<polygon fill="#FFFFFF" points="28.3,34.7 25.6,47.3 47.3,47.3 44.6,34.7 	"/>
</g>
</svg>
