<?xml version="1.0" encoding="utf-8"?>
<!-- Generator: Adobe Illustrator 18.1.0, SVG Export Plug-In . SVG Version: 6.00 Build 0)  -->
<!DOCTYPE svg PUBLIC "-//W3C//DTD SVG 1.1//EN" "http://www.w3.org/Graphics/SVG/1.1/DTD/svg11.dtd">
<svg version="1.1" id="Layer_1" xmlns="http://www.w3.org/2000/svg" xmlns:xlink="http://www.w3.org/1999/xlink" x="0px" y="0px"
	 viewBox="0 0 73.7 73.7" enable-background="new 0 0 73.7 73.7" xml:space="preserve">
<path fill="#FFFFFF" d="M36.4,1C16.9,1,1,16.9,1,36.4C1,56,16.9,71.9,36.4,71.9C56,71.9,71.9,56,71.9,36.4C71.9,16.9,56,1,36.4,1z
	 M50.8,30c0,0.3,0,0.6,0,0.9c0,9.2-7,19.9-19.9,19.9c-3.9,0-7.6-1.2-10.7-3.1c0.5,0.1,1.1,0.1,1.7,0.1c3.3,0,6.3-1.1,8.7-3
	c-3.1-0.1-5.6-2.1-6.5-4.8C24.5,40,25,40,25.4,40c0.6,0,1.3-0.1,1.8-0.2c-3.2-0.6-5.6-3.5-5.6-6.8c0,0,0-0.1,0-0.1
	c0.9,0.5,2,0.8,3.2,0.9c-1.9-1.3-3.1-3.4-3.1-5.8c0-1.3,0.3-2.5,0.9-3.5c3.4,4.2,8.6,7,14.4,7.3c-0.1-0.5-0.2-1-0.2-1.6
	c0-3.9,3.1-7,7-7c2,0,3.8,0.8,5.1,2.2c1.6-0.3,3.1-0.9,4.4-1.7c-0.5,1.6-1.6,3-3.1,3.9c1.4-0.2,2.8-0.5,4-1.1
	C53.4,27.8,52.2,29,50.8,30z"/>
<g>
	<path d="M354.7,9.5c-19.6,0-35.4,15.9-35.4,35.4c0,19.6,15.9,35.4,35.4,35.4c19.6,0,35.4-15.9,35.4-35.4
		C390.1,25.3,374.2,9.5,354.7,9.5z M337.9,35.1c0.5-0.2,6.7-2.5,7.7-2.5h1.7v-5.8H362v5.8h1.7c1.1,0,7.2,2.3,7.7,2.5
		c0.5,0.2,0.7,1.4-0.4,1.4h-32.8C337.2,36.4,337.4,35.3,337.9,35.1z M373.6,47.6c0,1.1-1.1,2.3-2.1,2.3h-3.8l1.7,9.7H340l1.7-9.7
		h-3.8c-1.1,0-2.1-1.3-2.1-2.3v-6.8c0-1.1,1.1-2.3,2.1-2.3h33.6c1.1,0,2.1,1.3,2.1,2.3V47.6z"/>
	<polygon points="346.6,43.2 343.9,55.8 365.5,55.8 362.8,43.2 	"/>
</g>
<path fill="#FFFFFF" d="M263.4,129.3c-19.6,0-35.4,15.9-35.4,35.4c0,19.6,15.9,35.4,35.4,35.4c19.6,0,35.4-15.9,35.4-35.4
	C298.9,145.2,283,129.3,263.4,129.3z M271.8,153.8h-5.3c-0.6,0-1.3,0.8-1.3,1.9v3.8h6.7v5.5h-6.7v16.5h-6.3v-16.5h-5.7v-5.5h5.7
	v-3.2c0-4.6,3.2-8.4,7.6-8.4h5.3V153.8z"/>
<path d="M434.9,9.5c-19.6,0-35.4,15.9-35.4,35.4c0,19.6,15.9,35.4,35.4,35.4c19.6,0,35.4-15.9,35.4-35.4
	C470.3,25.3,454.4,9.5,434.9,9.5z M450,62.2h-30.2V58H450V62.2z M434.9,55.5l-15.6-14.7h8.7V25.1h13.9v15.8h8.7L434.9,55.5z"/>
</svg>
